<mxfile host="Electron" modified="2023-04-05T13:54:51.524Z" agent="Mozilla/5.0 (Macintosh; Intel Mac OS X 10_15_7) AppleWebKit/537.36 (KHTML, like Gecko) draw.io/21.1.2 Chrome/106.0.5249.199 Electron/21.4.3 Safari/537.36" etag="Hv2GtDuFvrX2MpxQZwa2" version="21.1.2" type="device">
  <diagram name="Page-1" id="wtLVO1stVSxAbOeJHJb2">
    <mxGraphModel dx="3044" dy="1649" grid="1" gridSize="10" guides="1" tooltips="1" connect="1" arrows="1" fold="1" page="1" pageScale="1" pageWidth="827" pageHeight="1169" math="0" shadow="0">
      <root>
        <mxCell id="0" />
        <mxCell id="1" parent="0" />
        <mxCell id="vkpBGpc29pR133805690-13" value="" style="rounded=0;whiteSpace=wrap;html=1;" vertex="1" parent="1">
          <mxGeometry x="850" y="140" width="167" height="190" as="geometry" />
        </mxCell>
        <mxCell id="vkpBGpc29pR133805690-11" value="" style="rounded=0;whiteSpace=wrap;html=1;" vertex="1" parent="1">
          <mxGeometry x="660" y="140" width="167" height="190" as="geometry" />
        </mxCell>
        <mxCell id="vkpBGpc29pR133805690-9" value="" style="rounded=0;whiteSpace=wrap;html=1;" vertex="1" parent="1">
          <mxGeometry x="320" y="135" width="280" height="445" as="geometry" />
        </mxCell>
        <mxCell id="vkpBGpc29pR133805690-1" value="" style="rounded=0;whiteSpace=wrap;html=1;" vertex="1" parent="1">
          <mxGeometry x="40" y="130" width="280" height="450" as="geometry" />
        </mxCell>
        <mxCell id="vkpBGpc29pR133805690-4" value="JavaScript Thread" style="rounded=0;whiteSpace=wrap;html=1;" vertex="1" parent="1">
          <mxGeometry x="40" y="80" width="280" height="60" as="geometry" />
        </mxCell>
        <mxCell id="vkpBGpc29pR133805690-5" value="Native Module" style="rounded=0;whiteSpace=wrap;html=1;" vertex="1" parent="1">
          <mxGeometry x="320" y="80" width="280" height="60" as="geometry" />
        </mxCell>
        <mxCell id="vkpBGpc29pR133805690-8" style="edgeStyle=orthogonalEdgeStyle;rounded=0;orthogonalLoop=1;jettySize=auto;html=1;exitX=1;exitY=0.5;exitDx=0;exitDy=0;entryX=0;entryY=0.5;entryDx=0;entryDy=0;strokeColor=#FF8000;" edge="1" parent="1" source="vkpBGpc29pR133805690-6" target="vkpBGpc29pR133805690-7">
          <mxGeometry relative="1" as="geometry" />
        </mxCell>
        <mxCell id="vkpBGpc29pR133805690-37" style="edgeStyle=orthogonalEdgeStyle;rounded=0;orthogonalLoop=1;jettySize=auto;html=1;exitX=0.5;exitY=1;exitDx=0;exitDy=0;entryX=0.5;entryY=0;entryDx=0;entryDy=0;strokeColor=#FF8000;" edge="1" parent="1" source="vkpBGpc29pR133805690-6" target="vkpBGpc29pR133805690-39">
          <mxGeometry relative="1" as="geometry">
            <mxPoint x="180" y="250" as="targetPoint" />
          </mxGeometry>
        </mxCell>
        <mxCell id="vkpBGpc29pR133805690-38" value="Returns Event Listener" style="edgeLabel;html=1;align=center;verticalAlign=middle;resizable=0;points=[];" vertex="1" connectable="0" parent="vkpBGpc29pR133805690-37">
          <mxGeometry x="-0.1793" relative="1" as="geometry">
            <mxPoint as="offset" />
          </mxGeometry>
        </mxCell>
        <mxCell id="vkpBGpc29pR133805690-6" value="Create a subscription filter" style="rounded=0;whiteSpace=wrap;html=1;" vertex="1" parent="1">
          <mxGeometry x="120" y="150" width="120" height="60" as="geometry" />
        </mxCell>
        <mxCell id="vkpBGpc29pR133805690-19" style="edgeStyle=orthogonalEdgeStyle;rounded=0;orthogonalLoop=1;jettySize=auto;html=1;exitX=1;exitY=0.5;exitDx=0;exitDy=0;entryX=0;entryY=0.5;entryDx=0;entryDy=0;strokeColor=#FF8000;" edge="1" parent="1" source="vkpBGpc29pR133805690-7" target="vkpBGpc29pR133805690-15">
          <mxGeometry relative="1" as="geometry" />
        </mxCell>
        <mxCell id="vkpBGpc29pR133805690-20" style="edgeStyle=orthogonalEdgeStyle;rounded=0;orthogonalLoop=1;jettySize=auto;html=1;exitX=1;exitY=0.25;exitDx=0;exitDy=0;entryX=0;entryY=0.25;entryDx=0;entryDy=0;strokeColor=#FF8000;" edge="1" parent="1" source="vkpBGpc29pR133805690-7" target="vkpBGpc29pR133805690-17">
          <mxGeometry relative="1" as="geometry" />
        </mxCell>
        <mxCell id="vkpBGpc29pR133805690-7" value="Create a subscription with multiple relays" style="rounded=0;whiteSpace=wrap;html=1;" vertex="1" parent="1">
          <mxGeometry x="400" y="150" width="120" height="60" as="geometry" />
        </mxCell>
        <mxCell id="vkpBGpc29pR133805690-12" value="Relay 1" style="rounded=0;whiteSpace=wrap;html=1;" vertex="1" parent="1">
          <mxGeometry x="660" y="80" width="167" height="60" as="geometry" />
        </mxCell>
        <mxCell id="vkpBGpc29pR133805690-14" value="Relay 2" style="rounded=0;whiteSpace=wrap;html=1;" vertex="1" parent="1">
          <mxGeometry x="850" y="80" width="167" height="60" as="geometry" />
        </mxCell>
        <mxCell id="vkpBGpc29pR133805690-15" value="Responds with Data" style="rounded=0;whiteSpace=wrap;html=1;" vertex="1" parent="1">
          <mxGeometry x="683.5" y="150" width="120" height="60" as="geometry" />
        </mxCell>
        <mxCell id="vkpBGpc29pR133805690-25" style="edgeStyle=orthogonalEdgeStyle;rounded=0;orthogonalLoop=1;jettySize=auto;html=1;entryX=1;entryY=0.5;entryDx=0;entryDy=0;exitX=0.5;exitY=1;exitDx=0;exitDy=0;strokeColor=#FF8000;" edge="1" parent="1" source="vkpBGpc29pR133805690-17" target="vkpBGpc29pR133805690-29">
          <mxGeometry relative="1" as="geometry">
            <mxPoint x="964" y="210" as="sourcePoint" />
            <Array as="points">
              <mxPoint x="934" y="390" />
            </Array>
          </mxGeometry>
        </mxCell>
        <mxCell id="vkpBGpc29pR133805690-28" style="edgeStyle=orthogonalEdgeStyle;rounded=0;orthogonalLoop=1;jettySize=auto;html=1;entryX=1;entryY=0.5;entryDx=0;entryDy=0;exitX=0.5;exitY=1;exitDx=0;exitDy=0;strokeColor=#FF8000;" edge="1" parent="1" source="vkpBGpc29pR133805690-15" target="vkpBGpc29pR133805690-23">
          <mxGeometry relative="1" as="geometry">
            <mxPoint x="934" y="210" as="sourcePoint" />
            <Array as="points">
              <mxPoint x="744" y="320" />
            </Array>
          </mxGeometry>
        </mxCell>
        <mxCell id="vkpBGpc29pR133805690-16" value="Responds with Data" style="rounded=0;whiteSpace=wrap;html=1;" vertex="1" parent="1">
          <mxGeometry x="683.5" y="230" width="120" height="60" as="geometry" />
        </mxCell>
        <mxCell id="vkpBGpc29pR133805690-17" value="Responds with Data" style="rounded=0;whiteSpace=wrap;html=1;" vertex="1" parent="1">
          <mxGeometry x="873.5" y="150" width="120" height="60" as="geometry" />
        </mxCell>
        <mxCell id="vkpBGpc29pR133805690-18" value="Responds with Data" style="rounded=0;whiteSpace=wrap;html=1;" vertex="1" parent="1">
          <mxGeometry x="873.5" y="230" width="120" height="60" as="geometry" />
        </mxCell>
        <mxCell id="vkpBGpc29pR133805690-32" style="edgeStyle=orthogonalEdgeStyle;rounded=0;orthogonalLoop=1;jettySize=auto;html=1;exitX=0;exitY=0.5;exitDx=0;exitDy=0;entryX=1;entryY=0.5;entryDx=0;entryDy=0;strokeColor=#FF8000;" edge="1" parent="1" source="vkpBGpc29pR133805690-23" target="vkpBGpc29pR133805690-30">
          <mxGeometry relative="1" as="geometry">
            <Array as="points">
              <mxPoint x="450" y="320" />
              <mxPoint x="450" y="355" />
            </Array>
          </mxGeometry>
        </mxCell>
        <mxCell id="vkpBGpc29pR133805690-23" value="Deduplicate Event and verifies it" style="rounded=0;whiteSpace=wrap;html=1;" vertex="1" parent="1">
          <mxGeometry x="470" y="290" width="110" height="60" as="geometry" />
        </mxCell>
        <mxCell id="vkpBGpc29pR133805690-33" style="edgeStyle=orthogonalEdgeStyle;rounded=0;orthogonalLoop=1;jettySize=auto;html=1;exitX=0;exitY=0.5;exitDx=0;exitDy=0;entryX=1;entryY=0.5;entryDx=0;entryDy=0;strokeColor=#FF8000;" edge="1" parent="1" source="vkpBGpc29pR133805690-29" target="vkpBGpc29pR133805690-30">
          <mxGeometry relative="1" as="geometry">
            <mxPoint x="440" y="350" as="targetPoint" />
            <Array as="points">
              <mxPoint x="450" y="390" />
              <mxPoint x="450" y="355" />
            </Array>
          </mxGeometry>
        </mxCell>
        <mxCell id="vkpBGpc29pR133805690-29" value="Deduplicate Event and verifies it" style="rounded=0;whiteSpace=wrap;html=1;" vertex="1" parent="1">
          <mxGeometry x="470" y="360" width="110" height="60" as="geometry" />
        </mxCell>
        <mxCell id="vkpBGpc29pR133805690-35" style="edgeStyle=orthogonalEdgeStyle;rounded=0;orthogonalLoop=1;jettySize=auto;html=1;exitX=0.5;exitY=1;exitDx=0;exitDy=0;entryX=0.5;entryY=0;entryDx=0;entryDy=0;strokeColor=#FF8000;" edge="1" parent="1" source="vkpBGpc29pR133805690-30" target="vkpBGpc29pR133805690-34">
          <mxGeometry relative="1" as="geometry" />
        </mxCell>
        <mxCell id="vkpBGpc29pR133805690-30" value="Batches events" style="rounded=0;whiteSpace=wrap;html=1;" vertex="1" parent="1">
          <mxGeometry x="370" y="290" width="70" height="130" as="geometry" />
        </mxCell>
        <mxCell id="vkpBGpc29pR133805690-40" style="edgeStyle=orthogonalEdgeStyle;rounded=0;orthogonalLoop=1;jettySize=auto;html=1;exitX=0;exitY=0.5;exitDx=0;exitDy=0;entryX=0.5;entryY=1;entryDx=0;entryDy=0;shape=link;strokeColor=#FF8000;" edge="1" parent="1" source="vkpBGpc29pR133805690-34" target="vkpBGpc29pR133805690-39">
          <mxGeometry relative="1" as="geometry" />
        </mxCell>
        <mxCell id="vkpBGpc29pR133805690-34" value="Emits Event with batched event in payload every 500ms" style="rounded=0;whiteSpace=wrap;html=1;" vertex="1" parent="1">
          <mxGeometry x="337.5" y="490" width="135" height="60" as="geometry" />
        </mxCell>
        <mxCell id="vkpBGpc29pR133805690-42" style="edgeStyle=orthogonalEdgeStyle;rounded=0;orthogonalLoop=1;jettySize=auto;html=1;exitX=0;exitY=0.5;exitDx=0;exitDy=0;entryX=1;entryY=0.5;entryDx=0;entryDy=0;strokeColor=#FF8000;" edge="1" parent="1" source="vkpBGpc29pR133805690-39" target="vkpBGpc29pR133805690-41">
          <mxGeometry relative="1" as="geometry" />
        </mxCell>
        <mxCell id="vkpBGpc29pR133805690-39" value="Listen for events" style="rhombus;whiteSpace=wrap;html=1;" vertex="1" parent="1">
          <mxGeometry x="140" y="330" width="80" height="80" as="geometry" />
        </mxCell>
        <mxCell id="vkpBGpc29pR133805690-41" value="Do Something..." style="rounded=0;whiteSpace=wrap;html=1;" vertex="1" parent="1">
          <mxGeometry x="50" y="340" width="70" height="60" as="geometry" />
        </mxCell>
      </root>
    </mxGraphModel>
  </diagram>
</mxfile>
